HIERARCHY
ROOT reference
{
	OFFSET -88.146797 0.000000 14.961820
	CHANNELS 6 Xposition Yposition Zposition Xrotation Yrotation Zrotation
	JOINT root
	{
		OFFSET 0.922951 87.682404 1.340507
		CHANNELS 3 Xrotation Yrotation Zrotation
		JOINT Hips
		{
			OFFSET 0.000000 0.000000 0.000000
			CHANNELS 3 Xrotation Yrotation Zrotation
			JOINT Spine
			{
				OFFSET -0.012428 -0.105400 0.022438
				CHANNELS 3 Xrotation Yrotation Zrotation
				JOINT Spine1
				{
					OFFSET 4.842392 16.961205 -5.776710
					CHANNELS 3 Xrotation Yrotation Zrotation
					JOINT Spine2
					{
						OFFSET 6.818909 16.115295 -6.195213
						CHANNELS 3 Xrotation Yrotation Zrotation
						JOINT Neck
						{
							OFFSET 9.002388 13.577805 -8.894081
							CHANNELS 3 Xrotation Yrotation Zrotation
							JOINT Head
							{
								OFFSET 6.985439 7.200317 -5.687680
								CHANNELS 3 Xrotation Yrotation Zrotation
								End Site
								{
									OFFSET 0.000000 0.100006 0.000000
								}
							}
						}
						JOINT RightShoulder
						{
							OFFSET 12.069099 12.690704 -7.140663
							CHANNELS 3 Xrotation Yrotation Zrotation
							JOINT RightArm
							{
								OFFSET 13.230400 -6.459282 6.468367
								CHANNELS 3 Xrotation Yrotation Zrotation
								JOINT RightForeArm
								{
									OFFSET 25.948000 -13.450996 -3.230486
									CHANNELS 3 Xrotation Yrotation Zrotation
									JOINT RightHand
									{
										OFFSET 20.195297 -2.094818 -14.462503
										CHANNELS 3 Xrotation Yrotation Zrotation
										End Site
										{
											OFFSET 0.000000 0.099998 0.000000
										}
									}
								}
							}
						}
						JOINT LeftShoulder
						{
							OFFSET 5.942657 14.450806 -10.656801
							CHANNELS 3 Xrotation Yrotation Zrotation
							JOINT LeftArm
							{
								OFFSET -14.006096 3.715912 -6.973287
								CHANNELS 3 Xrotation Yrotation Zrotation
								JOINT LeftForeArm
								{
									OFFSET -25.895599 -11.949501 7.161783
									CHANNELS 3 Xrotation Yrotation Zrotation
									JOINT LeftHand
									{
										OFFSET 8.424828 -19.593300 -12.904402
										CHANNELS 3 Xrotation Yrotation Zrotation
										End Site
										{
											OFFSET 0.000000 0.099998 0.000000
										}
									}
								}
							}
						}
					}
				}
			}
			JOINT RightUpLeg
			{
				OFFSET 8.407043 -0.222000 4.542200
				CHANNELS 3 Xrotation Yrotation Zrotation
				JOINT RightLeg
				{
					OFFSET 21.972099 -37.996601 -10.034203
					CHANNELS 3 Xrotation Yrotation Zrotation
					JOINT RightFoot
					{
						OFFSET -2.475040 -41.000999 2.891760
						CHANNELS 3 Xrotation Yrotation Zrotation
						JOINT RightToe
						{
							OFFSET 15.662998 -7.346300 -4.983986
							CHANNELS 3 Xrotation Yrotation Zrotation
							End Site
							{
								OFFSET 0.000000 0.100000 0.000000
							}
						}
					}
				}
			}
			JOINT LeftUpLeg
			{
				OFFSET -8.407021 0.222008 -4.542194
				CHANNELS 3 Xrotation Yrotation Zrotation
				JOINT LeftLeg
				{
					OFFSET -13.846199 -41.627899 -10.129197
					CHANNELS 3 Xrotation Yrotation Zrotation
					JOINT LeftFoot
					{
						OFFSET -13.948097 -37.453999 9.910693
						CHANNELS 3 Xrotation Yrotation Zrotation
						JOINT LeftToe
						{
							OFFSET 0.070290 -8.146780 -16.055000
							CHANNELS 3 Xrotation Yrotation Zrotation
							End Site
							{
								OFFSET 0.000000 0.100000 0.000000
							}
						}
					}
				}
			}
		}
	}
}
MOTION
Frames: 6
Frame Time: 0.041667
-40.988998 0.000000 6.367420 -0.000000 0.000000 -0.000000 1.583617 -5.450241 0.515214 -0.454211 0.272382 0.851497 -0.100036 0.940766 0.451605 0.164642 1.706953 0.366561 0.277954 1.152822 0.135807 -0.778072 0.794167 -0.686531 -1.077416 1.161951 -1.811334 -0.282397 -0.415726 0.290293 0.051302 3.040403 -3.027857 -0.257549 -0.422767 -0.297722 -0.315815 -0.178210 0.501631 -0.212984 -0.560979 0.073351 -1.902166 1.255882 -1.836531 -0.287763 0.270344 -0.596284 -0.144538 0.501990 0.516729 -5.000788 3.620420 -10.408556 -14.961328 2.731093 -29.070532 24.347217 7.293092 -15.633429 -8.301232 1.974852 34.071842 6.076672 6.370224 30.663103 -11.027895 3.941678 -0.484310 5.740488 -0.138778 -20.370658 -0.668522 -0.027639 -2.817186 
-43.073502 0.000000 6.634623 -0.000000 0.000000 -0.000000 1.406494 -4.983033 0.337021 -0.381337 0.229661 0.715265 -0.088342 0.992878 0.538501 0.176421 1.737334 0.497167 0.290520 1.180352 0.222256 -0.815857 0.715014 -0.602806 -1.174217 1.011783 -1.674760 -0.351743 -0.454875 0.420284 0.016602 2.963474 -3.019873 -0.357379 -0.585333 -0.412965 -0.197844 -0.216217 0.422738 -0.245406 -0.540206 0.145661 -2.073300 1.297175 -2.114881 -0.230990 0.216570 -0.478332 -0.164458 0.537801 0.538495 -5.367911 6.385746 -13.570114 -12.037361 1.557364 -23.182647 23.886188 7.225807 -10.575332 -6.334894 6.634898 39.613195 6.422489 6.557052 31.700790 -10.425890 3.724704 -0.480285 4.154092 0.050661 -19.545411 -0.627446 -0.026890 -2.644232 
-46.867203 0.000000 7.397871 -0.000000 0.000000 -0.000000 1.199615 -4.585927 0.130887 -0.316776 0.191799 0.594452 -0.063989 1.051856 0.585987 0.207372 1.773183 0.570659 0.315763 1.206097 0.269748 -0.733379 0.671657 -0.437225 -1.129287 0.968242 -1.329479 -0.389622 -0.362377 0.595626 0.082935 2.709386 -2.810867 -0.401023 -0.656178 -0.463319 -0.150240 -0.185649 0.436235 -0.267926 -0.354897 0.293775 -2.034233 1.219327 -2.333233 -0.176087 0.164764 -0.364364 -0.115382 0.432211 0.482361 -5.528552 9.082530 -15.461694 -9.822000 0.890316 -18.825745 24.296153 8.346999 0.299214 -5.618957 4.689313 27.590886 7.131963 6.739822 32.685396 -10.285630 3.674191 -0.478332 2.107287 0.426614 -17.629529 -0.586378 -0.026016 -2.471284 
-50.323517 0.000000 7.979841 -0.000000 0.000000 -0.000000 0.950200 -4.387819 -0.246162 -0.303310 0.183668 0.569226 -0.081712 1.129148 0.646414 0.194857 1.877197 0.647771 0.318424 1.281932 0.315076 -0.579711 0.592944 -0.321337 -0.920604 0.879914 -1.021460 -0.366771 -0.249765 0.644404 0.314404 2.362572 -2.451004 -0.372699 -0.610233 -0.430641 -0.224145 -0.141160 0.529248 -0.275678 -0.192732 0.400777 -1.644544 1.334034 -2.295188 -0.211960 0.198585 -0.438800 -0.070292 0.349237 0.434009 -5.076040 9.040558 -16.338429 -8.347620 0.545912 -15.962133 22.166426 8.259831 9.171314 -3.671519 3.098067 16.977625 9.216978 6.322380 33.343699 -11.486016 4.106780 -0.491003 -1.496798 1.363490 -13.110329 -0.545488 -0.024587 -2.299072 
-52.842102 0.000000 8.142082 -0.000000 0.000000 -0.000000 0.724954 -4.284663 -0.838214 -0.379217 0.230578 0.711352 -0.152394 1.167903 0.727338 0.122783 2.005321 0.736419 0.283460 1.380364 0.366375 -0.395685 0.472515 -0.284441 -0.597570 0.720916 -0.824787 -0.291000 -0.156959 0.549487 0.665792 1.987753 -2.030142 -0.279105 -0.457968 -0.322633 -0.395426 -0.104343 0.667173 -0.263303 -0.103030 0.429327 -0.979750 1.635389 -2.013251 -0.340252 0.320270 -0.705545 -0.051045 0.320586 0.411180 -4.132889 6.327004 -16.508929 -7.487556 0.380521 -14.302105 18.473003 6.841838 14.338579 -0.601914 2.475445 11.254378 12.664527 5.228572 33.608530 -14.128266 5.058537 -0.486839 -6.637865 2.148301 -5.240660 -0.504946 -0.023111 -2.128351 
-57.984619 0.000000 8.694326 -0.000000 0.000000 -0.000000 0.447649 -3.033361 -1.591742 -0.508475 0.303934 0.952865 -0.266388 0.884791 0.826248 -0.058229 1.745289 0.883333 0.138045 1.232745 0.482881 -0.300705 0.287439 -0.354230 -0.343031 0.411942 -0.850227 -0.196658 -0.147564 0.333434 0.881802 1.628894 -1.940802 -0.065373 -0.107819 -0.075646 -0.554036 -0.126170 0.703518 -0.167952 -0.086088 0.262531 -0.253485 1.665991 -1.685653 -0.564590 0.535797 -1.174235 -0.130595 0.321038 0.408363 -2.467520 2.058289 -16.603717 -5.889778 0.141083 -11.233819 12.952393 5.103673 20.728893 2.887841 0.831291 2.366922 19.620384 2.810648 32.228060 -21.039083 7.528462 -0.268333 -15.294156 -2.536687 17.647684 -0.425624 -0.021610 -1.794256 
